<?xml version="1.0" encoding="UTF-8" standalone="no"?>
<!-- Created with Inkscape (http://www.inkscape.org/) -->

<svg
   width="5120"
   height="2879.9998"
   viewBox="0 0 1354.6667 761.99993"
   version="1.1"
   id="svg1"
   inkscape:version="1.3.2 (091e20ef0f, 2023-11-25)"
   sodipodi:docname="wallpaper.svg"
   inkscape:export-filename="wallpaper.png"
   inkscape:export-xdpi="96"
   inkscape:export-ydpi="96"
   xmlns:inkscape="http://www.inkscape.org/namespaces/inkscape"
   xmlns:sodipodi="http://sodipodi.sourceforge.net/DTD/sodipodi-0.dtd"
   xmlns:xlink="http://www.w3.org/1999/xlink"
   xmlns="http://www.w3.org/2000/svg"
   xmlns:svg="http://www.w3.org/2000/svg"
   xmlns:rdf="http://www.w3.org/1999/02/22-rdf-syntax-ns#"
   xmlns:cc="http://creativecommons.org/ns#"
   xmlns:dc="http://purl.org/dc/elements/1.1/">
  <title
     id="title1">Wallpaper for Swayhome</title>
  <sodipodi:namedview
     id="namedview1"
     pagecolor="#4f5255"
     bordercolor="#b2b2b2"
     borderopacity="1"
     inkscape:showpageshadow="1"
     inkscape:pageopacity="0"
     inkscape:pagecheckerboard="1"
     inkscape:deskcolor="#4f5255"
     inkscape:document-units="px"
     inkscape:zoom="0.10606602"
     inkscape:cx="1932.7585"
     inkscape:cy="2060.0378"
     inkscape:window-width="1340"
     inkscape:window-height="719"
     inkscape:window-x="0"
     inkscape:window-y="0"
     inkscape:window-maximized="1"
     inkscape:current-layer="layer1" />
  <defs
     id="defs1">
    <linearGradient
       inkscape:collect="always"
       xlink:href="#linearGradient15"
       id="linearGradient16"
       x1="18.147629"
       y1="373.22089"
       x2="279.25977"
       y2="373.22089"
       gradientUnits="userSpaceOnUse"
       gradientTransform="matrix(1.0296636,0,0,1.0296636,-75.772455,-440.56663)" />
    <linearGradient
       id="linearGradient15"
       inkscape:collect="always">
      <stop
         style="stop-color:#232629;stop-opacity:1;"
         offset="0"
         id="stop15-3" />
      <stop
         style="stop-color:#3daee9;stop-opacity:1;"
         offset="0.72270519"
         id="stop17-6" />
      <stop
         style="stop-color:#232629;stop-opacity:1;"
         offset="1"
         id="stop16-7" />
    </linearGradient>
    <inkscape:path-effect
       effect="interpolate"
       id="path-effect32731"
       is_visible="true"
       lpeversion="1"
       trajectory="M 670.64612,1020.4611 683.66241,792.03471"
       equidistant_spacing="true"
       steps="20" />
    <inkscape:path-effect
       effect="interpolate"
       id="path-effect1403"
       is_visible="true"
       lpeversion="1"
       trajectory="M 905.57884,315.12509 897.73305,195.39804"
       equidistant_spacing="true"
       steps="18" />
    <inkscape:path-effect
       effect="interpolate"
       id="path-effect3193"
       is_visible="true"
       lpeversion="1"
       trajectory="M 647.70973,1101.5955 660.72602,873.16902"
       equidistant_spacing="true"
       steps="35" />
    <inkscape:path-effect
       effect="interpolate"
       id="path-effect29536"
       is_visible="true"
       lpeversion="1"
       trajectory="M 624.98923,1053.2688 638.00552,824.84237"
       equidistant_spacing="true"
       steps="22" />
  </defs>
  <g
     inkscape:label="Layer 1"
     inkscape:groupmode="layer"
     id="layer1">
    <rect
       style="fill:#232629;fill-opacity:1;stroke:none;stroke-width:0.544863;stroke-linecap:round;stroke-linejoin:round;paint-order:stroke fill markers;stop-color:#000000"
       id="rect3074"
       width="1394.8511"
       height="784.60364"
       x="-20.650904"
       y="-19.423609" />
    <path
       id="path29534"
       style="font-variation-settings:normal;fill:none;fill-opacity:1;stroke:#3dc2e9;stroke-width:1.79873;stroke-linecap:butt;stroke-linejoin:miter;stroke-miterlimit:4;stroke-dasharray:none;stroke-dashoffset:0;stroke-opacity:1;stop-color:#000000"
       d="m 147.14378,591.73515 c 82.68818,-45.89189 99.23587,-104.77617 157.55022,-119.91926 68.80489,-17.86728 132.09203,35.97967 204.69783,29.6708 120.26382,-10.44997 129.25146,-143.04634 286.51562,-77.85128 124.92963,51.79054 207.09485,-6.28717 258.93765,-84.38215 M 144.37544,588.3924 c 80.68798,-46.58061 98.15299,-106.50141 157.62877,-121.25328 68.3826,-17.25553 134.33895,36.49507 208.16751,28.78463 117.19393,-10.91859 128.70679,-140.20158 281.65156,-78.70967 122.87836,48.58812 201.99341,-4.78372 255.73402,-79.29798 M 141.60711,585.04965 c 78.68777,-47.26933 97.0701,-108.22664 157.70731,-122.5873 67.96031,-16.64377 136.58587,37.01048 211.6372,27.89845 114.12403,-11.38719 128.16211,-137.3568 276.7875,-79.56805 120.82707,45.3857 196.89196,-3.28026 252.53048,-74.21381 M 138.83877,581.7069 c 76.68756,-47.95804 95.98721,-109.95188 157.78586,-123.92132 67.53802,-16.03202 138.83278,37.52588 215.10688,27.01228 111.05414,-11.85581 127.61744,-134.51204 271.92345,-80.42644 118.77579,42.18329 191.79051,-1.77681 249.32684,-69.12965 M 136.07044,578.36415 c 74.68735,-48.64676 94.90432,-111.67712 157.8644,-125.25534 67.11574,-15.42026 141.0797,38.04129 218.57656,26.12611 107.98425,-12.32443 127.07278,-131.66728 267.0594,-81.28484 116.72451,38.98088 186.68906,-0.27334 246.1233,-64.04547 M 133.3021,575.0214 c 72.68715,-49.33548 93.82144,-113.40236 157.94295,-126.58936 66.69345,-14.80851 143.32662,38.55669 222.04625,25.23993 104.91435,-12.79303 126.5281,-128.82251 262.19534,-82.14322 114.67322,35.77847 181.58761,1.23011 242.91966,-58.9613 m -887.87253,239.1112 c 70.68694,-50.0242 92.73855,-115.12759 158.02149,-127.92338 66.27116,-14.19676 145.57354,39.07209 225.51593,24.35376 101.84447,-13.26165 125.98343,-125.97775 257.33129,-83.00161 112.62194,32.57605 176.48617,2.73357 239.71602,-53.87713 M 127.76543,568.3359 c 68.68674,-50.71292 91.65567,-116.85283 158.10004,-129.2574 65.84887,-13.585 147.82046,39.5875 228.98561,23.46759 98.77458,-13.73027 125.43876,-123.13299 252.46723,-83.86 110.57067,29.37363 171.38473,4.23702 236.51249,-48.79296 M 124.99709,564.99315 c 66.68653,-51.40163 90.57278,-118.57807 158.17859,-130.59142 65.42658,-12.97325 150.06737,40.1029 232.4553,22.58141 95.70468,-14.19887 124.89408,-120.28822 247.60317,-84.71838 108.51938,26.17122 166.28328,5.74047 233.30885,-43.7088 M 122.22876,561.6504 c 64.68632,-52.09035 89.48989,-120.3033 158.25713,-131.92544 65.00429,-12.3615 152.31429,40.6183 235.92498,21.69524 92.63479,-14.66749 124.34941,-117.44346 242.73912,-85.57678 106.4681,22.96881 161.18183,7.24394 230.10525,-38.62462 M 119.46042,558.30765 c 62.68612,-52.77907 88.40701,-122.02854 158.33568,-133.25946 64.582,-11.74974 154.56121,41.13371 239.39466,20.80907 89.5649,-15.13611 123.80474,-114.5987 237.87507,-86.43517 104.41682,19.7664 156.08038,8.74739 226.90165,-33.54045 M 116.69209,554.96491 c 60.68591,-53.4678 87.32412,-123.75379 158.41422,-134.59348 64.15972,-11.138 156.80813,41.6491 242.86435,19.92288 86.495,-15.60471 123.26006,-111.75393 233.01101,-87.29355 102.36553,16.56398 150.97893,10.25085 223.69805,-28.45628 M 113.92375,551.62216 c 58.68571,-54.15652 86.24124,-125.47903 158.49277,-135.9275 63.73743,-10.52624 159.05505,42.16451 246.33403,19.03671 83.42511,-16.07333 122.71539,-108.90917 228.14696,-88.15194 100.31425,13.36156 145.87748,11.7543 220.49445,-23.37211 M 111.15542,548.27941 c 56.6855,-54.84524 85.15835,-127.20426 158.57131,-137.26152 63.31514,-9.91449 161.30197,42.67991 249.80371,18.15054 80.35522,-16.54195 122.17072,-106.06441 223.2829,-89.01033 98.26298,10.15915 140.77604,13.25776 217.29086,-18.28794 m -851.71712,223.0665 c 54.68529,-55.53395 84.07546,-128.9295 158.64986,-138.59554 62.89285,-9.30274 163.54888,43.19531 253.2734,17.26436 77.28532,-17.01055 121.62604,-103.21964 218.41884,-89.86872 96.21169,6.95674 135.67459,14.76122 214.08725,-13.20377 M 105.61874,541.59391 c 52.68509,-56.22267 82.99258,-130.65474 158.72841,-139.92956 62.47056,-8.69098 165.7958,43.71072 256.74308,16.37819 74.21543,-17.47917 121.08137,-100.37487 213.55479,-90.72711 94.16041,3.75433 130.57314,16.26467 210.88365,-8.1196 M 102.85041,538.25116 c 50.68488,-56.91139 81.90969,-132.37997 158.80695,-141.26358 62.04827,-8.07923 168.04272,44.22612 260.21276,15.49202 71.14555,-17.94779 120.5367,-97.53011 208.69074,-91.5855 92.10913,0.55191 125.4717,17.76813 207.68005,-3.03543 M 100.08207,534.90841 c 48.68468,-57.60011 80.82681,-134.10521 158.8855,-142.5976 61.62598,-7.46748 170.28964,44.74152 263.68245,14.60584 68.07565,-18.41639 119.99202,-94.68534 203.82668,-92.44388 90.05784,-2.65051 120.37025,19.27158 204.47645,2.04874 M 97.313738,531.56566 C 143.99821,473.27683 177.05766,395.73521 256.27778,387.63404 c 61.2037,-6.85572 172.53656,45.25693 267.15213,13.71967 65.00576,-18.88501 119.44735,-91.84058 198.96263,-93.30227 88.00656,-5.85292 115.2688,20.77504 201.27285,7.13291 M 94.545402,528.22291 C 139.22966,469.24537 173.20643,390.66722 253.58799,382.95727 c 60.78141,-6.24397 174.78347,45.77233 270.62181,12.8335 61.93587,-19.35363 118.90268,-88.99582 194.09857,-94.16067 85.95529,-9.05533 110.16736,22.2785 198.06925,12.21708 M 91.777067,524.88016 C 134.46112,465.2139 169.35521,385.59924 250.8982,378.2805 c 60.35912,-5.63221 177.03039,46.28774 274.0915,11.94732 58.86597,-19.82223 118.358,-86.15105 189.23451,-95.01905 83.904,-12.25774 105.06591,23.78196 194.86565,17.30125 M 89.008731,521.53741 C 129.69258,461.18243 165.50399,380.53125 248.20841,373.60373 c 59.93683,-5.02046 179.27731,46.80314 277.56118,11.06115 55.79608,-20.29085 117.81333,-83.30629 184.37046,-95.87744 81.85272,-15.46016 99.96446,25.28541 191.66205,22.38542"
       inkscape:path-effect="#path-effect29536"
       inkscape:original-d="m 147.14378,591.73515 c 82.68818,-45.89189 99.23587,-104.77617 157.55022,-119.91926 68.80489,-17.86728 132.09203,35.97967 204.69783,29.6708 120.26382,-10.44997 129.25146,-143.04634 286.51562,-77.85128 124.92963,51.79054 207.09485,-6.28717 258.93765,-84.38215 M 89.008731,521.53741 C 129.69258,461.18243 165.50399,380.53125 248.20841,373.60373 c 59.93683,-5.02046 179.27731,46.80314 277.56118,11.06115 55.79608,-20.29085 117.81333,-83.30629 184.37046,-95.87744 81.85272,-15.46016 99.96446,25.28541 191.66205,22.38542"
       sodipodi:nodetypes="csssccsssc"
       transform="matrix(1.0296636,0,0,1.0296636,-20.650903,-19.423609)" />
    <path
       id="path3137"
       style="font-variation-settings:normal;fill:none;fill-opacity:1;stroke:#28404d;stroke-width:1.79872664;stroke-linecap:butt;stroke-linejoin:miter;stroke-miterlimit:4;stroke-dasharray:none;stroke-dashoffset:0;stroke-opacity:1;stop-color:#000000"
       d="m 24.100199,757.40611 c 0,0 139.154831,33.32255 275.742701,48.25069 102.44091,11.19611 203.4379,12.04538 243.2021,-19.2703 9.23609,-7.27374 18.5693,-14.02335 28.00696,-20.20917 37.75066,-24.74328 77.17267,-40.46597 118.73627,-44.6302 20.7818,-2.08211 42.09899,-1.27461 64.01036,2.73973 20.9595,3.83995 54.93106,7.26828 96.0532,9.63717 82.24428,4.7378 193.09091,5.23789 285.64801,-3.68214 23.1393,-2.23001 45.1355,-5.04877 65.2559,-8.53727 77.088,-13.36561 136.6808,-33.50268 179.6153,-52.15219 57.2459,-24.86602 84.877,-47.0875 84.877,-47.0875 M 23.12323,756.45668 c 3.871351,-3.4288 140.29856,28.70177 275.93161,43.93138 100.6672,11.16647 198.92266,10.36161 238.76347,-21.06114 9.37982,-7.40252 18.96692,-14.22953 28.84351,-20.34887 38.6124,-24.33328 79.01229,-38.74006 121.39356,-43.00823 21.43114,-2.16078 43.08791,-1.80695 65.28411,1.70221 21.27234,3.3399 55.13677,6.32309 96.16097,8.65365 82.28583,4.66781 190.92194,7.3029 282.76344,-1.72821 22.8285,-2.23326 44.5526,-5.16797 64.4576,-8.83342 75.95,-13.81114 134.9343,-34.92078 177.6777,-53.98077 57.4845,-25.8546 87.8667,-48.50883 90.1381,-47.55559 M 22.146262,755.50724 c 7.742702,-6.85759 141.442298,24.081 276.120508,39.61207 98.8935,11.13684 194.40744,8.67785 234.32485,-22.85197 9.52355,-7.53129 19.36454,-14.43572 29.68007,-20.48856 39.47414,-23.9233 80.85191,-37.01417 124.05084,-41.38628 22.08048,-2.23944 44.07682,-2.33928 66.55787,0.6647 21.58517,2.83985 55.34247,5.37791 96.26873,7.67013 82.32738,4.59782 188.75307,9.36792 279.87877,0.22572 22.5179,-2.2365 43.9697,-5.28717 63.6594,-9.12956 74.812,-14.25668 133.1878,-36.33889 175.7402,-55.80935 57.7229,-26.84318 90.8563,-49.93017 95.3991,-48.02369 M 21.169293,754.55781 c 11.614053,-10.28639 142.586027,19.46023 276.309417,35.29276 97.11979,11.1072 189.8922,6.99408 229.88622,-24.64282 9.66728,-7.66006 19.76216,-14.64189 30.51662,-20.62825 40.33589,-23.5133 82.69153,-35.28827 126.70814,-39.76432 22.72981,-2.3181 45.06572,-2.87161 67.83161,-0.37281 21.89801,2.3398 55.54818,4.43272 96.3765,6.6866 82.36893,4.52784 186.5841,11.43295 276.9942,2.17966 22.2071,-2.23975 43.3868,-5.40638 62.8611,-9.42571 73.674,-14.70221 131.4412,-37.75699 173.8027,-57.63793 57.9614,-27.83175 93.8458,-51.3515 100.6601,-48.49179 M 20.192324,753.60838 c 15.485405,-13.71519 143.729756,14.83945 276.498316,30.97344 95.3461,11.07757 185.37697,5.31032 225.44759,-26.43365 9.81102,-7.78883 20.15979,-14.84808 31.35318,-20.76795 41.19764,-23.1033 84.53115,-33.56237 129.36543,-38.14236 23.37915,-2.39676 46.05464,-3.40394 69.10537,-1.41031 22.21084,1.83974 55.75388,3.48753 96.48426,5.70307 82.41048,4.45786 184.41513,13.49796 274.10953,4.13359 21.8965,-2.243 42.804,-5.52558 62.063,-9.72185 72.5359,-15.14775 129.6946,-39.1751 171.865,-59.46651 58.1999,-28.82033 96.8355,-52.77284 105.9212,-48.95989 M 19.215356,752.65894 c 19.356755,-17.14398 144.873484,10.21869 276.687224,26.65414 93.57239,11.04793 180.86174,3.62655 221.00896,-28.22449 9.95475,-7.91761 20.55742,-15.05426 32.18973,-20.90764 42.05938,-22.69331 86.37077,-31.83648 132.02272,-36.52041 24.02849,-2.47541 47.04355,-3.93626 70.37912,-2.44782 22.52368,1.33969 55.95959,2.54234 96.59203,4.71955 82.45203,4.38787 182.24626,15.56298 271.22496,6.08752 21.5857,-2.24624 42.221,-5.64478 61.2647,-10.018 71.3979,-15.59328 127.9481,-40.5932 169.9275,-61.29508 58.4384,-29.80892 99.8251,-54.19417 111.1822,-49.42799 M 18.238387,751.70951 c 23.228106,-20.57278 146.017223,5.59791 276.876123,22.33482 91.79869,11.0183 176.34651,1.94279 216.57034,-30.01532 10.09848,-8.04639 20.95504,-15.26045 33.02629,-21.04734 42.92112,-22.28331 88.21039,-30.11058 134.68,-34.89844 24.67783,-2.55408 48.03247,-4.4686 71.65287,-3.48534 22.83652,0.83965 56.1653,1.59716 96.6998,3.73602 82.49358,4.31789 180.07729,17.628 268.34029,8.04146 21.2751,-2.24949 41.6382,-5.76398 60.4665,-10.31414 70.2599,-16.03882 126.2015,-42.01131 167.9899,-63.12367 58.6769,-30.79749 102.8148,-55.6155 116.4433,-49.89608 M 17.261418,750.76008 c 27.099458,-24.00158 147.160952,0.97713 277.065032,18.01551 90.02498,10.98866 171.83127,0.25902 212.13171,-31.80616 10.24221,-8.17516 21.35266,-15.46663 33.86284,-21.18704 43.78287,-21.87331 90.05001,-28.38468 137.3373,-33.27648 25.32716,-2.63274 49.02137,-5.00093 72.92662,-4.52285 23.14935,0.3396 56.371,0.65197 96.80756,2.7525 82.53512,4.2479 177.90832,19.69302 265.45572,9.99539 20.9644,-2.25274 41.0553,-5.88318 59.6682,-10.61029 69.1219,-16.48435 124.455,-43.42941 166.0524,-64.95224 58.9154,-31.78607 105.8044,-57.03684 121.7043,-50.36419 M 16.28445,749.81064 c 30.970808,-27.43037 148.30468,-3.64363 277.25393,13.6962 88.25128,10.95903 167.31605,-1.42474 207.69309,-33.597 10.38593,-8.30393 21.75028,-15.67281 34.69939,-21.32672 44.64462,-21.46333 91.88963,-26.65879 139.99459,-31.65453 25.9765,-2.7114 50.01028,-5.53326 74.20037,-5.56036 23.46219,-0.16045 56.57671,-0.29321 96.91533,1.76897 82.57667,4.17792 175.73945,21.75805 262.57105,11.94933 20.6537,-2.25598 40.4724,-6.00238 58.87,-10.90643 67.9839,-16.92989 122.7085,-44.84752 164.1148,-66.78082 59.1539,-32.77465 108.794,-58.45818 126.9654,-50.83229 M 15.307481,748.86121 c 34.842159,-30.85916 149.448409,-8.26441 277.442839,9.37689 86.47757,10.92939 162.80081,-3.10851 203.25446,-35.38784 10.52966,-8.4327 22.14791,-15.87899 35.53595,-21.46642 45.50636,-21.05333 93.72925,-24.93289 142.65187,-30.03257 26.62584,-2.79006 50.9992,-6.06559 75.47413,-6.59787 23.77502,-0.6605 56.78242,-1.2384 97.02309,0.78545 82.61822,4.10793 173.57048,23.82306 259.68648,13.90326 20.343,-2.25923 39.8895,-6.12158 58.0717,-11.20258 66.8458,-17.37542 120.9619,-46.26562 162.1773,-68.6094 59.3924,-33.76323 111.7836,-59.87951 132.2264,-51.30038 M 14.330512,747.91177 c 38.713511,-34.28795 150.592148,-12.88517 277.631738,5.05758 84.70388,10.89976 158.28558,-4.79226 198.81584,-37.17867 10.67339,-8.56148 22.54553,-16.08517 36.3725,-21.60611 46.3681,-20.64334 95.56887,-23.20699 145.30916,-28.41062 27.27518,-2.86872 51.98811,-6.59792 76.74788,-7.63537 24.08786,-1.16056 56.98813,-2.18359 97.13086,-0.19808 82.65977,4.03794 171.40161,25.88808 256.80181,15.85719 20.0323,-2.26248 39.3067,-6.24078 57.2735,-11.49872 65.7078,-17.82096 119.2154,-47.68373 160.2397,-70.43798 59.6309,-34.75181 114.7733,-61.30085 137.4875,-51.76848 M 13.353544,746.96234 c 42.584861,-37.71675 151.735876,-17.50595 277.820646,0.73826 82.93017,10.87013 153.77035,-6.47602 194.3772,-38.9695 10.81713,-8.69026 22.94316,-16.29136 37.20906,-21.74581 47.22985,-20.23334 97.40849,-21.48109 147.96646,-26.78865 27.92451,-2.94739 52.97702,-7.13025 78.02162,-8.67289 24.4007,-1.66061 57.19384,-3.12878 97.23863,-1.18161 82.70132,3.96796 169.23264,27.9531 253.91724,17.81113 19.7216,-2.26572 38.7237,-6.35998 56.4753,-11.79487 64.5697,-18.26649 117.4687,-49.10183 158.3021,-72.26655 59.8694,-35.74039 117.7629,-62.72219 142.7485,-52.23659 M 12.376575,746.01291 c 46.456213,-41.14555 152.879605,-22.12673 278.009545,-3.58105 81.15647,10.84049 149.25512,-8.15979 189.93858,-40.76034 10.96086,-8.81903 23.34078,-16.49754 38.04561,-21.88551 48.0916,-19.82334 99.24812,-19.75519 150.62375,-25.16669 28.57385,-3.02605 53.96593,-7.66258 79.29538,-9.7104 24.71353,-2.16066 57.39954,-4.07396 97.34639,-2.16513 82.74287,3.89797 167.06367,30.01812 251.03257,19.76506 19.4109,-2.26897 38.1409,-6.47918 55.6771,-12.09101 63.4317,-18.71203 115.7222,-50.51994 156.3646,-74.09514 60.1078,-36.72896 120.7525,-64.14352 148.0095,-52.70468 M 11.399606,745.06347 c 50.327564,-44.57434 154.023334,-26.74749 278.198454,-7.90036 79.38276,10.81086 144.73988,-9.84355 185.49995,-42.55118 11.10459,-8.9478 23.7384,-16.70372 38.88217,-22.02519 48.95334,-19.41335 101.08773,-18.0293 153.28103,-23.54474 29.22319,-3.10471 54.95484,-8.19491 80.56913,-10.74791 25.02637,-2.66071 57.60525,-5.01915 97.45416,-3.14866 82.78442,3.828 164.8948,32.08315 248.148,21.719 19.1002,-2.27222 37.558,-6.59838 54.8788,-12.38716 62.2937,-19.15756 113.9757,-51.93805 154.427,-75.92371 60.3464,-37.71755 123.7421,-65.56485 153.2706,-53.17278 M 10.422638,744.11404 C 64.621552,696.1109 165.58971,712.74577 288.80999,731.89437 c 77.60906,10.78122 140.22465,-11.52732 181.06133,-44.34202 11.24832,-9.07657 24.13603,-16.9099 39.71872,-22.16489 49.81508,-19.00336 102.92735,-16.3034 155.93833,-21.92278 29.87252,-3.18336 55.94375,-8.72724 81.84288,-11.78542 25.3392,-3.16076 57.81095,-5.96433 97.56192,-4.13218 82.82597,3.75801 162.72583,34.14816 245.26333,23.67293 18.7895,-2.27547 36.9751,-6.71759 54.0806,-12.6833 61.1557,-19.60311 112.2291,-53.35616 152.4895,-77.7523 60.5848,-38.70612 126.7317,-66.98618 158.5316,-53.64087 M 9.4456691,743.16461 C 67.515935,691.73267 165.75647,707.17557 288.02193,726.62562 c 75.83535,10.75159 135.70942,-13.21108 176.6227,-46.13285 11.39205,-9.20535 24.53365,-17.11609 40.55527,-22.30459 50.67683,-18.59336 104.76697,-14.5775 158.59562,-20.30082 30.52186,-3.26202 56.93266,-9.25957 83.11663,-12.82293 25.65204,-3.66081 58.01666,-6.90952 97.66969,-5.1157 82.86752,3.68802 160.55696,36.21318 242.37876,25.62686 18.4788,-2.27871 36.3922,-6.83679 53.2823,-12.97945 60.0177,-20.04864 110.4826,-54.77426 150.5519,-79.58087 60.8234,-39.6947 129.7214,-68.40752 163.7927,-54.10898 M 8.4687004,742.21517 C 70.410317,687.35444 165.92323,701.60536 287.23386,721.35688 c 74.06165,10.72195 131.19419,-14.89485 172.18408,-47.92369 11.53578,-9.33412 24.93127,-17.32227 41.39183,-22.44428 51.53857,-18.18337 106.60659,-12.85161 161.2529,-18.67886 31.1712,-3.34069 57.92158,-9.79191 84.39039,-13.86044 25.96487,-4.16087 58.22236,-7.85471 97.77745,-6.09924 82.90907,3.61804 158.38799,38.2782 239.49409,27.5808 18.1681,-2.28196 35.8094,-6.95599 52.4841,-13.27559 58.8797,-20.49418 108.7361,-56.19237 148.6144,-81.40945 61.0619,-40.68328 132.711,-69.82886 169.0537,-54.57708 M 7.4917317,741.26574 C 73.304699,682.97621 166.09,696.03515 286.4458,716.08813 c 72.28795,10.69232 126.67895,-16.57861 167.74545,-49.71452 11.67951,-9.4629 25.32889,-17.52846 42.22838,-22.58398 52.40032,-17.77337 108.44621,-11.12571 163.91019,-17.0569 31.82054,-3.41935 58.91049,-10.32424 85.66414,-14.89795 26.27771,-4.66092 58.42807,-8.7999 97.88522,-7.08276 82.95062,3.54805 156.21902,40.34322 236.60952,29.53473 17.8574,-2.28521 35.2264,-7.07519 51.6858,-13.57174 57.7416,-20.93971 106.9895,-57.61047 146.6768,-83.23803 61.3004,-41.67186 135.7007,-71.25019 174.3149,-55.04517 M 6.5147631,740.31631 C 76.199082,678.59798 166.25676,690.46495 285.65773,710.81939 c 70.51425,10.66268 122.16373,-18.26238 163.30682,-51.50537 11.82325,-9.59167 25.72652,-17.73463 43.06494,-22.72367 53.26207,-17.36337 110.28583,-9.39981 166.56749,-15.43494 32.46987,-3.49801 59.89939,-10.85656 86.93788,-15.93546 26.59056,-5.16097 58.63378,-9.74508 97.99299,-8.06629 82.99217,3.47807 154.05012,42.40825 233.72485,31.48867 17.5467,-2.28845 34.6436,-7.19439 50.8877,-13.86788 56.6035,-21.38525 105.2429,-59.02858 144.7392,-85.06661 61.5389,-42.66044 138.6902,-72.67153 179.5759,-55.51327 M 5.5377944,739.36687 C 79.093464,674.21975 166.42352,684.89474 284.86967,705.55064 c 68.74054,10.63305 117.64849,-19.94614 158.86819,-53.2962 11.96697,-9.72044 26.12415,-17.94081 43.9015,-22.86336 54.1238,-16.95338 112.12545,-7.67392 169.22477,-13.81299 33.11921,-3.57667 60.88831,-11.38889 88.21164,-16.97297 26.90339,-5.66102 58.83948,-10.69027 98.10075,-9.04981 83.03372,3.40808 151.88119,44.47326 230.84028,33.4426 17.236,-2.2917 34.0607,-7.31359 50.0894,-14.16403 55.4655,-21.83078 103.4964,-60.44668 142.8017,-86.89518 61.7773,-43.64902 141.6798,-74.09287 184.8369,-55.98137 M 4.5608258,738.41744 C 81.987847,669.84152 166.59028,679.32454 284.0816,700.2819 c 66.96684,10.6034 113.13326,-21.6299 154.42957,-55.08704 12.1107,-9.84922 26.52177,-18.147 44.73805,-23.00306 54.98555,-16.54339 113.96507,-5.94801 171.88206,-12.19103 33.76855,-3.65533 61.87722,-11.92122 89.48539,-18.01048 27.21623,-6.16106 59.04519,-11.63545 98.20853,-10.03333 83.07526,3.33809 149.71225,46.53828 227.9556,35.39653 16.9253,-2.29495 33.4778,-7.43279 49.2912,-14.46017 54.3275,-22.27632 101.7498,-61.86479 140.8641,-88.72377 62.0159,-44.63759 144.6695,-75.5142 190.098,-56.44947 M 3.5838571,737.46801 C 84.882229,665.46329 166.75705,673.75433 283.29354,695.01315 c 65.19313,10.57377 108.61803,-23.31366 149.99094,-56.87787 12.25443,-9.97799 26.91939,-18.35318 45.5746,-23.14276 55.8473,-16.13339 115.80469,-4.22211 174.53935,-10.56907 34.41789,-3.73399 62.86614,-12.45355 90.75915,-19.04799 27.52906,-6.66111 59.25089,-12.58064 98.31629,-11.01686 83.11681,3.26812 147.54332,48.6033 225.07103,37.35047 16.6146,-2.29819 32.8949,-7.55199 48.4929,-14.75632 53.1895,-22.72185 100.0033,-63.28289 138.9266,-90.55234 62.2543,-45.62618 147.6591,-76.93554 195.359,-56.91757 M 2.6068884,736.51857 C 87.776611,661.08506 166.92381,668.18412 282.50547,689.74441 c 63.41943,10.54413 104.1028,-24.99743 145.55232,-58.66871 12.39816,-10.10677 27.31701,-18.55937 46.41115,-23.28245 56.70905,-15.7234 117.64431,-2.49622 177.19665,-8.94711 35.06722,-3.81265 63.85504,-12.98589 92.03289,-20.08551 27.8419,-7.16116 59.45661,-13.52582 98.42406,-12.00038 83.15836,3.19813 145.37439,50.66832 222.18636,39.3044 16.3039,-2.30144 32.3121,-7.67119 47.6947,-15.05246 52.0515,-23.16739 98.2568,-64.701 136.989,-92.38093 62.4929,-46.61475 150.6487,-78.35686 200.6201,-57.38566 M 1.6299198,735.56914 C 90.670994,656.70683 167.09057,662.61392 281.71741,684.47566 c 61.64573,10.5145 99.58756,-26.68119 141.11369,-60.45955 12.54189,-10.23554 27.71464,-18.76554 47.24771,-23.42214 57.57078,-15.3134 119.48393,-0.77032 179.85393,-7.32515 35.71656,-3.89131 64.84395,-13.51822 93.30664,-21.12301 28.15474,-7.66122 59.66232,-14.47102 98.53183,-12.98392 83.19991,3.12815 143.20546,52.73334 219.30179,41.25834 15.9932,-2.30469 31.7291,-7.79039 46.8964,-15.34861 50.9135,-23.61292 96.5102,-66.1191 135.0515,-94.2095 62.7313,-47.60333 153.6383,-79.7782 205.8811,-57.85376 M 0.65295112,734.61971 C 93.565376,652.3286 167.25733,657.04371 280.92934,679.20691 c 59.87203,10.48487 95.07234,-28.36495 136.67507,-62.25038 12.68562,-10.36431 28.11226,-18.97173 48.08426,-23.56184 58.43253,-14.9034 121.32355,0.95558 182.51122,-5.70319 36.3659,-3.96997 65.83287,-14.05054 94.5804,-22.16052 28.46757,-8.16127 59.86802,-15.4162 98.63959,-13.96744 83.24146,3.05816 141.03652,54.79836 216.41712,43.21227 15.6825,-2.30794 31.1463,-7.90959 46.0982,-15.64475 49.7755,-24.05846 94.7637,-67.53721 133.1139,-96.03808 62.9699,-48.59191 156.628,-81.19954 211.1422,-58.32187 M -0.32401754,733.67027 C 96.459759,647.95037 167.4241,651.4735 280.14128,673.93817 c 58.09832,10.45523 90.5571,-30.04872 132.23644,-64.04122 12.82935,-10.49309 28.50988,-19.17791 48.92081,-23.70153 59.29428,-14.49341 123.16317,2.68147 185.16852,-4.08124 37.01523,-4.04863 66.82177,-14.58287 95.85414,-23.19803 28.78041,-8.66132 60.07373,-16.36139 98.74736,-14.95096 83.283,2.98817 138.86759,56.86338 213.53255,45.1662 15.3718,-2.31118 30.5634,-8.0288 45.3,-15.9409 48.6374,-24.50399 93.017,-68.95531 131.1763,-97.86666 63.2083,-49.58049 159.6176,-82.62087 216.4032,-58.78996 M -1.3009862,732.72084 C 99.354141,643.57215 167.59086,645.9033 279.35321,668.66942 c 56.32462,10.4256 86.04187,-31.73248 127.79781,-65.83205 12.97309,-10.62186 28.90751,-19.3841 49.75738,-23.84123 60.15602,-14.08342 125.00279,4.40737 187.8258,-2.45928 37.66457,-4.12729 67.81069,-15.1152 97.1279,-24.23554 29.09324,-9.16137 60.27943,-17.30657 98.85512,-15.93449 83.32455,2.91819 136.69866,58.9284 210.64788,47.12014 15.0611,-2.31443 29.9806,-8.148 44.5018,-16.23704 47.4993,-24.94953 91.2705,-70.37342 129.2387,-99.69524 63.4469,-50.56907 162.6073,-84.04221 221.6643,-59.25806 M -2.2779549,731.7714 C 102.24852,639.19392 167.75762,640.33309 278.56515,663.40068 c 54.55091,10.39596 81.52664,-33.41625 123.35918,-67.62289 13.11682,-10.75064 29.30513,-19.59028 50.59393,-23.98092 61.01777,-13.67343 126.84241,6.13326 190.48309,-0.83732 38.31391,-4.20596 68.7996,-15.64754 98.40165,-25.27306 29.40608,-9.66142 60.48514,-18.25176 98.96289,-16.91801 83.3661,2.8482 134.52973,60.99342 207.76331,49.07407 14.7504,-2.31768 29.3976,-8.2672 43.7035,-16.53319 46.3613,-25.39506 89.524,-71.79152 127.3012,-101.52381 63.6853,-51.55765 165.5968,-85.46355 226.9253,-59.72616 M -3.2549235,730.82197 C 105.14291,634.81569 167.92438,634.76289 277.77708,658.13193 c 52.77721,10.36633 77.01141,-35.10001 118.92056,-69.41373 13.26055,-10.8794 29.70276,-19.79646 51.43048,-24.12061 61.87951,-13.26343 128.68203,7.85916 193.14038,0.78464 38.96325,-4.28462 69.78851,-16.17987 99.6754,-26.31057 29.71892,-10.16147 60.69085,-19.19694 99.07066,-17.90154 83.40765,2.77822 132.3608,63.05844 204.87864,51.02801 14.4397,-2.32092 28.8148,-8.3864 42.9053,-16.82933 45.2233,-25.8406 87.7774,-73.20963 125.3637,-103.3524 63.9238,-52.54622 168.5864,-86.88488 232.1863,-60.19426 M -4.2318922,729.87254 C 108.03729,630.43746 168.09115,629.19268 276.98902,652.86319 c 51.0035,10.33669 72.49617,-36.78378 114.48193,-71.20457 13.40428,-11.00818 30.10038,-20.00264 52.26704,-24.26031 62.74125,-12.85343 130.52165,9.58506 195.79767,2.4066 39.61258,-4.36328 70.77742,-16.7122 100.94915,-27.34807 30.03175,-10.66153 60.89655,-20.14214 99.17842,-18.88507 83.4492,2.70823 130.19187,65.12346 201.99407,52.98194 14.129,-2.32417 28.2319,-8.5056 42.107,-17.12548 44.0853,-26.28613 86.0309,-74.62773 123.4261,-105.18097 64.1623,-53.53481 171.5761,-88.30622 237.4474,-60.66236 M -5.2088609,728.9231 C 110.93167,626.05923 168.25791,623.62247 276.20095,647.59444 c 49.22981,10.30706 67.98094,-38.46753 110.04331,-72.9954 13.548,-11.13696 30.498,-20.20882 53.10359,-24.4 63.603,-12.44344 132.36127,11.31096 198.45496,4.02855 40.26192,-4.44193 71.76633,-17.24452 102.2229,-28.38558 30.34459,-11.16158 61.10226,-21.08732 99.28619,-19.86859 83.49075,2.63825 128.02294,67.18848 199.1094,54.93587 13.8183,-2.32742 27.649,-8.6248 41.3088,-17.42163 42.9473,-26.73166 84.2844,-76.04583 121.4886,-107.00955 64.4008,-54.52338 174.5657,-89.72754 242.7084,-61.13045 M -6.1858295,727.97367 C 113.82605,621.681 168.42467,618.05227 275.41289,642.3257 c 47.4561,10.27742 63.46571,-40.1513 105.60468,-74.78624 13.69173,-11.26573 30.89562,-20.41501 53.94014,-24.5397 64.46475,-12.03344 134.20089,13.03686 201.11225,5.65051 40.91126,-4.52059 72.75525,-17.77685 103.49666,-29.42309 30.65742,-11.66163 61.30796,-22.03251 99.39395,-20.85212 83.5323,2.56827 125.854,69.2535 196.22483,56.88981 13.5076,-2.33066 27.0661,-8.744 40.5105,-17.71777 41.8093,-27.1772 82.5378,-77.46394 119.551,-108.83813 64.6393,-55.51196 177.5554,-91.14888 247.9695,-61.59855 M -7.1627982,727.02424 C 116.72044,617.30277 168.59143,612.48206 274.62482,637.05695 c 45.6824,10.24779 58.95048,-41.83506 101.16606,-76.57707 13.83546,-11.39451 31.29325,-20.62119 54.77669,-24.6794 65.32649,-11.62345 136.04051,14.76276 203.76954,7.27248 41.5606,-4.59926 73.74416,-18.30919 104.77041,-30.46061 30.97026,-12.16168 61.51367,-22.97769 99.50172,-21.83564 83.57385,2.49828 123.68507,71.31852 193.34016,58.84374 13.1969,-2.33391 26.4833,-8.8632 39.7124,-18.01392 40.6712,-27.62273 80.7912,-78.88204 117.6134,-110.6667 64.8778,-56.50054 180.5449,-92.57022 253.2305,-62.06666 M -8.1397668,726.0748 C 119.61482,612.92454 168.7582,606.91186 273.83676,631.78821 c 43.90869,10.21815 54.43524,-43.51883 96.72742,-78.36792 13.9792,-11.52327 31.69088,-20.82737 55.61326,-24.81908 66.18823,-11.21346 137.88013,16.48865 206.42683,8.89443 42.20993,-4.67792 74.73306,-18.84152 106.04415,-31.49812 31.2831,-12.66173 61.71938,-23.92288 99.60949,-22.81917 83.6154,2.4283 121.51614,73.38354 190.45559,60.79768 12.8862,-2.33716 25.9003,-8.9824 38.9141,-18.31006 39.5332,-28.06827 79.0447,-80.30015 115.6758,-112.49529 65.1163,-57.48912 183.5346,-93.99155 258.4916,-62.53475 M -9.1167355,725.12537 C 122.5092,608.54631 168.92496,601.34165 273.04869,626.51946 c 42.13499,10.18852 49.92002,-45.20259 92.2888,-80.15875 14.12293,-11.65205 32.0885,-21.03355 56.44981,-24.95878 67.04998,-10.80346 139.71975,18.21455 209.08412,10.51639 42.85927,-4.75658 75.72198,-19.37385 107.31791,-32.53563 31.59593,-13.16177 61.92509,-24.86807 99.71725,-23.80269 83.65695,2.35831 119.34721,75.44856 187.57092,62.75161 12.5755,-2.34041 25.3175,-9.1016 38.1159,-18.60621 38.3952,-28.5138 77.2981,-81.71826 113.7383,-114.32386 65.3548,-58.4777 186.5242,-95.41289 263.7526,-63.00285"
       inkscape:path-effect="#path-effect3193"
       inkscape:original-d="m 24.100199,757.40611 c 0,0 426.161671,102.0503 518.944801,28.98039 64.65264,-50.91619 134.0638,-76.14984 210.75359,-62.09964 73.35825,13.43983 306.11421,21.83724 446.95711,-2.58224 179.8721,-31.18642 264.4923,-99.23969 264.4923,-99.23969 M -9.1167355,725.12537 C 122.5092,608.54631 168.92496,601.34165 273.04869,626.51946 c 56.17999,13.58469 51.29337,-89.41662 148.73861,-105.11753 67.04998,-10.80346 139.71975,18.21455 209.08412,10.51639 85.71854,-9.51316 131.45083,-58.46907 207.03516,-56.33832 83.65695,2.35831 119.34721,75.44856 187.57092,62.75161 50.3021,-9.36162 103.2673,-89.45593 151.8542,-132.93007 65.3548,-58.4777 186.5242,-95.41289 263.7526,-63.00285"
       sodipodi:nodetypes="csssccssssssc"
       transform="matrix(1.0296636,0,0,1.0296636,-20.650903,-19.423609)" />
    <path
       style="fill:#2d5b74;fill-opacity:1;stroke:none;stroke-width:0.27243px;stroke-linecap:butt;stroke-linejoin:miter;stroke-opacity:1"
       d="M -47.910294,746.84575 C 187.46905,554.4868 206.94374,651.71561 293.46706,639.47442 c 37.73345,-5.33849 70.92903,-83.68258 112.35022,-100.2423 60.65283,-24.24833 147.52938,7.54108 212.61158,3.63784 72.72333,-4.36154 151.38819,-39.87856 222.43331,-36.1191 72.49572,3.8362 128.01459,89.644 213.47813,66.00184 119.1929,-32.97289 214.1598,-228.74015 392.5801,-230.74652 V 802.71971 H -50.026447 Z"
       id="path2960"
       sodipodi:nodetypes="cssssscccc" />
    <path
       style="fill:#399ccf;fill-opacity:1;stroke:none;stroke-width:0.27243px;stroke-linecap:butt;stroke-linejoin:miter;stroke-opacity:1"
       d="M -44.747615,752.75105 C 12.932934,726.20551 117.96673,642.06681 184.24157,645.37909 c 33.95169,1.69686 66.48332,37.08781 102.13246,26.82625 55.24622,-15.90256 71.61511,-79.61503 123.78465,-103.07895 71.54713,-32.17927 118.44011,15.59336 188.12805,5.69595 73.0862,-10.38004 150.85619,-53.2062 226.32555,-41.89306 65.3778,9.80037 98.72142,108.5748 179.54912,88.74721 162.7182,-39.91601 223.0316,-242.94787 400.9722,-228.94198 V 791.08613 L -39.997206,792.9429 Z"
       id="path2950"
       sodipodi:nodetypes="csssssscccc" />
    <path
       style="fill:#3daee9;fill-opacity:1;stroke:none;stroke-width:0.27243px;stroke-linecap:butt;stroke-linejoin:miter;stroke-opacity:1"
       d="M -53.070718,773.56257 C -20.129989,759.70899 13.82547,747.99658 45.589288,731.66944 255.29518,623.87705 190.44181,777.10796 359.54463,716.97012 485.89909,672.03483 559.85777,575.29176 709.65478,591.29088 806.01002,601.58216 809.4097,731.77434 925.35872,697.67723 1064.5783,656.73691 1275.7335,430.02525 1408.6496,568.13947 V 790.71293 H -53.070718 Z"
       id="path2940"
       sodipodi:nodetypes="csssscccc" />
    <path
       id="path1376"
       style="fill:none;stroke:#2d5b74;stroke-width:1.79872664;stroke-linecap:butt;stroke-linejoin:miter;stroke-opacity:1;stroke-dasharray:none"
       d="m 423.26668,429.33188 c 0,0 50.07841,-7.8303 120.13301,-19.5427 70.0546,-11.71239 160.08538,-27.30687 239.99012,-42.83524 39.95236,-7.76418 77.37322,-15.51183 108.49979,-22.74943 33.6016,-7.8131 73.60262,-18.2324 116.0992,-29.90291 84.9932,-23.34102 179.9688,-51.68684 253.696,-74.19741 73.7273,-22.51057 126.2062,-39.18589 126.2062,-39.18589 M 423.04698,426.82352 c 1.29368,-0.0181 51.7229,-7.92104 118.86719,-19.50649 70.09278,-12.95435 157.42057,-30.47605 237.32618,-46.19412 39.07981,-7.65418 76.09362,-14.99535 107.16398,-21.91903 33.39979,-7.46532 72.80313,-17.44611 114.19977,-29.02709 84.1443,-23.73807 174.8874,-53.08066 248.4102,-75.70847 77.4734,-24.00581 132.7633,-34.93101 138.1734,-45.12719 M 422.82728,424.31516 c 2.58737,-0.0362 53.36738,-8.01177 117.60138,-19.47029 70.13096,-14.19631 154.75575,-33.64522 234.66224,-49.55299 38.20724,-7.54417 74.81402,-14.47886 105.82815,-21.08862 33.19799,-7.11756 72.00366,-16.65983 112.30037,-28.15127 83.29538,-24.13514 169.80598,-54.4745 243.12428,-77.21955 81.2196,-25.50103 139.3206,-30.67613 150.1406,-51.06849 M 422.60758,421.8068 c 3.88105,-0.0544 55.01186,-8.10251 116.33556,-19.43409 70.16915,-15.43826 152.09094,-36.81439 231.99831,-52.91185 37.33467,-7.43418 73.53441,-13.96238 104.49233,-20.25823 32.99618,-6.76978 71.20417,-15.87354 110.40094,-27.27545 82.44648,-24.53219 164.72458,-55.86832 237.83848,-78.73061 84.9658,-26.99626 145.8777,-26.42125 162.1078,-57.00979 M 422.38788,419.29844 c 5.17473,-0.0725 56.65634,-8.19324 115.06975,-19.39789 70.20732,-16.68021 149.42612,-39.98356 229.33437,-56.27072 36.4621,-7.32418 72.2548,-13.44589 103.1565,-19.42782 32.79437,-6.42201 70.4047,-15.08726 108.50152,-26.39963 81.59758,-24.92925 159.64318,-57.26215 232.55258,-80.24168 88.712,-28.49149 152.435,-22.16637 174.0751,-62.9511 M 422.16819,416.79008 c 6.4684,-0.0906 58.30081,-8.28398 113.80392,-19.36169 70.24551,-17.92217 146.76131,-43.15273 226.67043,-59.62959 35.58954,-7.21417 70.9752,-12.92941 101.82069,-18.59742 32.59256,-6.07424 69.60522,-14.30097 106.60209,-25.52381 80.74868,-25.32631 154.56188,-58.65597 227.26668,-81.75274 92.4582,-29.98672 158.9922,-17.9115 186.0423,-68.8924 M 421.94849,414.28172 c 7.76209,-0.10873 59.9453,-8.37471 112.5381,-19.32549 70.2837,-19.16412 144.0965,-46.3219 224.0065,-62.98846 34.71697,-7.10417 69.69559,-12.41292 100.48486,-17.76701 32.39076,-5.72647 68.80574,-13.51469 104.70268,-24.648 79.89977,-25.72336 149.48047,-60.0498 221.98087,-83.2638 96.2043,-31.48195 165.5494,-13.65662 198.0095,-74.8337 m -961.94221,280.3181 c 9.05577,-0.12685 61.58978,-8.46544 111.27229,-19.28929 70.32187,-20.40607 141.43168,-49.49107 221.34256,-66.34733 33.84441,-6.99417 68.41599,-11.89643 99.14904,-16.93661 32.18895,-5.3787 68.00626,-12.72841 102.80325,-23.77217 79.05087,-26.12043 144.39907,-61.44363 216.69497,-84.77487 99.9506,-32.97719 172.1066,-9.40174 209.9768,-80.77501 M 421.50909,409.265 c 10.34945,-0.14497 63.23426,-8.55618 110.00647,-19.25308 70.36006,-21.64804 138.76687,-52.66025 218.67862,-69.70621 32.97185,-6.88416 67.13639,-11.37995 97.81322,-16.1062 31.98715,-5.03093 67.20679,-11.94213 100.90383,-22.89636 78.20197,-26.51748 139.31767,-62.83745 211.40917,-86.28594 103.6967,-34.47241 178.6638,-5.14686 221.9439,-86.7163 M 421.28939,406.75663 c 11.64314,-0.16308 64.87874,-8.6469 108.74066,-19.21687 70.39824,-22.88999 136.10205,-55.82942 216.01468,-73.06507 32.09928,-6.77417 65.85678,-10.86347 96.4774,-15.27581 31.78534,-4.68316 66.4073,-11.15584 99.0044,-22.02053 77.35307,-26.91455 134.23627,-64.23128 206.12327,-87.79701 107.4429,-35.96764 185.221,-0.89198 233.9112,-92.657607 M 421.06969,404.24827 c 12.93682,-0.1812 66.52322,-8.73764 107.47484,-19.18067 70.43642,-24.13195 133.43725,-58.99859 213.35075,-76.42394 31.22671,-6.66417 64.57717,-10.34698 95.14157,-14.4454 31.58354,-4.33539 65.60783,-10.36956 97.10498,-21.14472 76.50417,-27.3116 129.15497,-65.6251 200.83747,-89.30807 111.1891,-37.46287 191.7782,3.36289 245.8783,-98.598912 M 420.84999,401.73991 c 14.2305,-0.19932 68.16771,-8.82837 106.20903,-19.14447 70.4746,-25.3739 130.77243,-62.16776 210.68681,-79.78281 30.35414,-6.55416 63.29757,-9.83049 93.80575,-13.615 31.38173,-3.98762 64.80834,-9.58327 95.20555,-20.26889 75.65527,-27.70866 124.07357,-67.01894 195.55157,-90.81914 114.9353,-38.9581 198.3354,7.61777 257.8456,-104.540216 M 420.63029,399.23155 c 15.52419,-0.21744 69.81219,-8.91911 104.94321,-19.10827 70.51279,-26.61585 128.10762,-65.33693 208.02287,-83.14168 29.48158,-6.44416 62.01797,-9.31401 92.46994,-12.78459 31.17991,-3.63985 64.00886,-8.79699 93.30612,-19.39308 74.80641,-28.10572 118.99217,-68.41276 190.26577,-92.3302 118.6814,-40.45334 204.8926,11.87265 269.8128,-110.48152 M 420.4106,396.72319 c 16.81786,-0.23557 71.45666,-9.00984 103.67738,-19.07207 70.55097,-27.85781 125.44281,-68.5061 205.35894,-86.50055 28.60901,-6.33415 60.73836,-8.79752 91.13411,-11.95419 30.97811,-3.29208 63.20939,-8.0107 91.4067,-18.51726 73.95751,-28.50277 113.91077,-69.80658 184.97987,-93.84126 122.4277,-41.94857 211.4498,16.12752 281.78,-116.422824 M 420.1909,394.21483 c 18.11154,-0.25369 73.10114,-9.10058 102.41157,-19.03586 70.58915,-29.09977 122.77799,-71.67528 202.695,-89.85943 27.73645,-6.22415 59.45875,-8.28103 89.79829,-11.12378 30.7763,-2.94431 62.4099,-7.22442 89.50728,-17.64144 73.10861,-28.89984 108.82936,-71.20041 179.69406,-95.35234 126.1738,-43.44379 218.007,20.38241 293.7472,-122.364118 M 419.9712,391.70647 c 19.40522,-0.27181 74.74563,-9.19131 101.14575,-18.99966 70.62734,-30.34172 120.11318,-74.84445 200.03107,-93.21829 26.86388,-6.11416 58.17914,-7.76455 88.46246,-10.29339 30.5745,-2.59654 61.61043,-6.43813 87.60786,-16.76562 72.25971,-29.29689 103.74796,-72.59424 174.40816,-96.8634 129.92,-44.93902 224.5642,24.63729 305.7145,-128.305422 M 419.7515,389.19811 c 20.69891,-0.28993 76.39011,-9.28205 99.87994,-18.96346 70.66551,-31.58368 117.44836,-78.01362 197.36712,-96.57716 25.99132,-6.00415 56.89955,-7.24807 87.12665,-9.46298 30.37269,-2.24877 60.81094,-5.65185 85.70843,-15.8898 71.41081,-29.69396 98.66662,-73.98807 169.12236,-98.37447 133.6662,-46.43425 231.1214,28.89216 317.6816,-134.246726 M 419.5318,386.68975 c 21.99259,-0.30805 78.03459,-9.37278 98.61412,-18.92726 70.7037,-32.82563 114.78355,-81.18279 194.70319,-99.93603 25.11875,-5.89415 55.61994,-6.73158 85.79082,-8.63258 30.17089,-1.901 60.01147,-4.86556 83.80901,-15.01398 70.56191,-30.09101 93.58524,-75.38189 163.83646,-99.88553 137.4124,-47.929486 237.6786,33.14704 329.6489,-140.1880306"
       inkscape:path-effect="#path-effect1403"
       inkscape:original-d="m 423.26668,429.33188 c 0,0 312.99008,-48.93939 468.62292,-85.12737 C 1059.8976,305.13903 1387.891,200.9183 1387.891,200.9183 M 419.5318,386.68975 c 21.99259,-0.30805 78.03459,-9.37278 98.61412,-18.92726 70.7037,-32.82563 114.78355,-81.18279 194.70319,-99.93603 50.2375,-11.7883 122.00475,-3.34972 169.59983,-23.64656 70.56191,-30.09101 93.58524,-75.38189 163.83646,-99.88553 137.4124,-47.929486 237.6786,33.14704 329.6489,-140.1880306"
       sodipodi:nodetypes="csccssssc"
       transform="matrix(1.0296636,0,0,1.0296636,-20.650903,-19.423609)" />
    <path
       style="fill:#3687b2;fill-opacity:1;stroke:none;stroke-width:0.27243px;stroke-linecap:butt;stroke-linejoin:miter;stroke-opacity:1"
       d="m -43.332835,456.67865 c 130.713013,79.04216 160.718645,-55.65017 272.693805,-86.90972 86.92409,-24.26612 180.3699,19.74137 269.01706,2.02122 75.54393,-15.10088 132.6644,-82.11119 206.92039,-99.22046 49.74006,-11.46057 102.83105,12.64684 147.77922,12.40272 92.50031,-0.50252 102.54337,-101.27566 234.19646,-124.66883 58.757,-10.44041 92.579,7.05569 147.919,3.77546 84.5698,-5.0128 106.177,-78.492871 160.1645,-135.885611 9.9879,10.359257 9.1058,197.055581 0,200.332901 -17.5239,6.30722 -145.6561,-43.34678 -209.8671,-23.25654 -97.5889,30.53347 -179.1918,109.26804 -281.07474,137.07076 -97.7787,26.68275 -125.07205,-40.9273 -222.72375,-9.5556 C 634.41107,347.97451 522.51155,452.90258 474.71521,461.09187 333.35316,485.3125 357.94067,356.48004 178.33011,502.27804 141.93649,531.82038 23.379947,659.74199 -43.332835,629.7344 c -4.449128,-2.00122 -33.16674,-149.33601 0,-173.05575 z"
       id="path2985"
       sodipodi:nodetypes="csssssscsssssssc" />
    <path
       id="path2974"
       style="fill:#399ccf;fill-opacity:1;stroke:none;stroke-width:0.27243px;stroke-linecap:butt;stroke-linejoin:miter;stroke-opacity:1"
       d="M 953.92399,316.52869 C 885.81329,376.70774 749.73824,279.77175 671.28141,308.52416 591.57085,337.73598 536.20947,419.90514 456.19028,439.89935 375.23936,460.12639 305.40768,354.54843 208.41695,390.47289 98.832157,431.06202 100.2394,628.26143 -55.289207,607.65537 l 13.590906,31.96972 c 65.37994,-6.30371 123.630696,-8.18173 189.619731,-55.93228 62.27568,-45.06352 80.28175,-130.62132 159.74753,-144.2166 43.36985,-7.41989 99.68657,41.4359 167.54717,42.61527 90.77174,1.57758 144.32206,-90.52629 194.85452,-105.1403 104.09357,-30.1039 149.83895,43.64659 229.62408,44.03915 116.84087,0.57489 173.04407,-111.48 259.40007,-156.62945 59.2619,-30.98387 141.4934,-33.54174 247.1633,10.37055 l 3.8442,-111.28727 c -117.3824,69.67542 -200.522,12.52987 -290.9364,40.27871 -58.1384,17.8431 -101.5751,56.55311 -165.24191,112.80582 z"
       sodipodi:nodetypes="ssssccssssssccss" />
    <path
       style="font-variation-settings:normal;vector-effect:none;fill:#3dc2e9;fill-opacity:1;stroke:none;stroke-width:0.27243px;stroke-linecap:butt;stroke-linejoin:miter;stroke-miterlimit:4;stroke-dasharray:none;stroke-dashoffset:0;stroke-opacity:1;stop-color:#000000"
       d="M -46.626342,779.38544 C 7.3207625,760.76655 118.86291,699.34181 180.21106,722.60822 c 59.46154,22.55092 109.44338,34.26917 162.19745,33.42139 120.52981,-1.93697 197.34303,-81.2402 316.13831,-94.00969 101.61846,-10.92316 159.02881,58.01647 237.80994,70.16518 74.15811,11.43579 166.06254,-67.53444 237.59254,-61.95649 154.2138,12.02571 219.6277,8.76243 271.9225,-115.99738 l -7.496,226.22912 z"
       id="path494"
       sodipodi:nodetypes="csssssccc" />
    <path
       id="path32729"
       style="font-variation-settings:normal;vector-effect:none;fill:none;fill-opacity:1;stroke:#84d2e9;stroke-width:0.79375;stroke-linecap:butt;stroke-linejoin:miter;stroke-miterlimit:4;stroke-dasharray:none;stroke-dashoffset:0;stroke-opacity:1;stop-color:#000000"
       d="m 506.03776,841.45567 c 75.19894,-2.35191 150.39789,-4.70382 225.59683,-7.05574 75.19895,-2.35191 150.3979,-4.70382 225.59684,-7.05573 75.19897,-2.35192 150.39787,-4.70383 225.59687,-7.05574 75.1989,-2.35191 150.3979,-4.70383 225.5968,-7.05574 m -904.13436,24.72026 c 71.2411,-2.22813 149.74521,-7.97102 225.03808,-10.20065 75.92445,-2.22985 150.64676,-2.81772 226.77142,-4.41044 74.81976,-1.76251 151.07796,-4.3132 225.67386,-7.19735 75.0128,-2.9657 153.3597,-8.27869 224.6008,-10.50682 m -903.83119,28.81257 c 67.28327,-2.10435 149.09253,-11.23821 224.47934,-13.34555 76.64994,-2.10781 150.89562,-0.93162 227.946,-1.76516 74.44055,-1.17311 151.75805,-3.92258 225.75085,-7.33896 74.8268,-3.57948 156.3216,-11.85355 223.6048,-13.9579 M 500.79669,830.9476 c 63.32543,-1.98056 148.43985,-14.5054 223.92058,-16.49046 77.37545,-1.98575 151.1445,0.95448 229.1206,0.88013 74.06143,-0.5837 152.43813,-3.53195 225.82783,-7.48057 74.6407,-4.19326 159.2834,-15.42842 222.6089,-17.40897 M 499.04967,827.4449 c 59.36758,-1.85677 147.78717,-17.77259 223.36182,-19.63536 78.10095,-1.8637 151.39337,2.84059 230.29519,3.52542 73.68222,0.006 153.11822,-3.14133 225.90482,-7.62217 74.4546,-4.80705 162.2453,-19.00329 221.6129,-20.86006 m -902.92176,41.08948 c 55.40975,-1.73299 147.13449,-21.03978 222.80308,-22.78027 78.82645,-1.74164 151.64224,4.72669 231.46977,6.17071 73.30301,0.59511 153.79831,-2.7507 225.98171,-7.76378 74.2686,-5.42084 165.2073,-22.57815 220.617,-24.31114 m -902.61858,45.18179 c 51.45191,-1.6092 146.48181,-24.30697 222.24433,-25.92518 79.55194,-1.61959 151.8911,6.6128 232.64435,8.816 72.9238,1.18452 154.4784,-2.36008 226.0587,-7.90539 74.0825,-6.03462 168.1691,-26.15301 219.621,-27.76222 m -902.31541,49.2741 c 47.49407,-1.48542 145.82914,-27.57417 221.68558,-29.07008 80.27745,-1.49754 152.13998,8.4989 233.81894,11.46128 72.54469,1.77393 155.15849,-1.96945 226.13569,-8.047 73.8965,-6.6484 171.131,-29.72788 218.625,-31.2133 m -902.01223,53.36641 c 43.53623,-1.36164 145.17645,-30.84136 221.12683,-32.21499 81.00294,-1.37549 152.38884,10.385 234.99353,14.10658 72.16547,2.36332 155.83867,-1.57884 226.21267,-8.18861 73.7104,-7.26219 174.0928,-33.30275 217.6291,-34.66438 m -901.70915,57.45871 c 39.57839,-1.23785 144.52377,-34.10855 220.56807,-35.3599 81.72845,-1.25343 152.63772,12.27111 236.16812,16.75187 71.78626,2.95273 156.51876,-1.18821 226.28966,-8.33022 73.5243,-7.87598 177.0547,-36.87761 216.6331,-38.11546 m -901.40598,61.55101 c 35.62056,-1.11406 143.8711,-37.37573 220.00933,-38.5048 82.45394,-1.13138 152.88658,14.15721 237.3427,19.39716 71.40715,3.54213 157.19885,-0.79759 226.36665,-8.47183 73.3382,-8.48976 180.0166,-40.45248 215.6371,-41.56654 m -901.1028,65.64332 c 31.66271,-0.99028 143.21842,-40.64293 219.45057,-41.64971 83.17945,-1.00932 153.13545,16.04332 238.51729,22.04245 71.02794,4.13154 157.87894,-0.40696 226.44364,-8.61344 73.1521,-9.10354 182.9784,-44.02734 214.6411,-45.01762 m -900.79962,69.73563 c 27.70487,-0.86649 142.56573,-43.91012 218.89181,-44.79461 83.90495,-0.88728 153.38433,17.92941 239.69189,24.68773 70.64872,4.72095 158.55902,-0.0163 226.52062,-8.75505 72.9661,-9.71732 185.9403,-47.6022 213.6452,-48.46869 m -900.49655,73.82793 c 23.74704,-0.74271 141.91306,-47.17731 218.33307,-47.93952 84.63045,-0.76522 153.63319,19.81552 240.86647,27.33302 70.26951,5.31035 159.23911,0.37429 226.59761,-8.89665 72.78,-10.33112 188.9021,-51.17707 212.6492,-51.91978 m -900.19337,77.92024 c 19.78919,-0.61893 141.26038,-50.44451 217.77432,-51.08443 85.35594,-0.64317 153.88206,21.70162 242.04105,29.97831 69.8904,5.89976 159.9192,0.76491 226.6746,-9.03826 72.5939,-10.9449 191.864,-54.75194 211.6532,-55.37086 M 479.8324,788.9153 c 15.83136,-0.49514 140.6077,-53.7117 217.21557,-54.22934 86.08145,-0.52111 154.13093,23.58773 243.21564,32.6236 69.51119,6.48917 160.59929,1.15554 226.75159,-9.17987 72.4078,-11.55868 194.8259,-58.3268 210.6572,-58.82194 M 478.08538,785.4126 c 11.87352,-0.37135 139.95502,-56.97888 216.65682,-57.37424 86.80694,-0.39906 154.3798,25.47383 244.39022,35.2689 69.13198,7.07856 161.27938,1.54615 226.82858,-9.32149 72.2217,-12.17246 197.7877,-61.90166 209.6612,-62.27302 m -899.28384,90.19716 c 7.91568,-0.24757 139.30234,-60.24607 216.09806,-60.51914 87.53245,-0.27701 154.62867,27.35993 245.56482,37.91418 68.75276,7.66797 161.95946,1.93678 226.90556,-9.46309 72.0357,-12.78626 200.7496,-65.47653 208.6653,-65.7241 m -898.98077,94.28946 c 3.95784,-0.12378 138.64966,-63.51327 215.53932,-63.66405 88.25794,-0.15496 154.87754,29.24603 246.7394,40.55947 68.37365,8.25737 162.63955,2.3274 226.98255,-9.6047 71.8496,-13.40004 203.7114,-69.0514 207.6693,-69.17518 m -898.67759,98.38177 c 0,0 137.99698,-66.78046 214.98056,-66.80896 88.98345,-0.0329 155.12641,31.13214 247.91399,43.20476 67.99444,8.84678 163.31964,2.71803 227.05954,-9.74631 71.6635,-14.01382 206.6733,-72.62626 206.6733,-72.62626"
       inkscape:path-effect="#path-effect32731"
       inkscape:original-d="M 506.03776,841.45567 1408.4251,813.23272 M 472.84431,774.90453 c 0,0 137.99698,-66.78046 214.98056,-66.80896 88.98345,-0.0329 155.12641,31.13214 247.91399,43.20476 67.99444,8.84678 163.31964,2.71803 227.05954,-9.74631 71.6635,-14.01382 206.6733,-72.62626 206.6733,-72.62626"
       sodipodi:nodetypes="cccsssc"
       transform="matrix(1.0296636,0,0,1.0296636,-20.650903,-19.423609)" />
    <rect
       style="font-variation-settings:'wght' 900;fill:#31363b;fill-opacity:1;stroke-width:2.05933;-inkscape-stroke:none;paint-order:stroke fill markers"
       id="rect9"
       width="76.729248"
       height="42.054375"
       x="-151.05724"
       y="-175.91789"
       transform="rotate(90)" />
    <rect
       style="font-variation-settings:'wght' 900;fill:#fcfcfc;fill-opacity:1;stroke-width:2.05933;-inkscape-stroke:none;paint-order:stroke fill markers"
       id="rect10-35"
       width="76.729248"
       height="42.054375"
       x="-151.05724"
       y="-126.52796"
       transform="rotate(90)" />
    <rect
       style="font-variation-settings:'wght' 900;fill:#7f8c8d;fill-opacity:1;stroke-width:2.05933;-inkscape-stroke:none;paint-order:stroke fill markers"
       id="rect11"
       width="76.729248"
       height="42.054375"
       x="-151.05724"
       y="-79.281586"
       transform="rotate(90)" />
    <rect
       style="font-variation-settings:'wght' 900;fill:#3daee9;fill-opacity:1;stroke-width:2.05933;-inkscape-stroke:none;paint-order:stroke fill markers"
       id="rect12"
       width="76.729248"
       height="42.054375"
       x="-151.05724"
       y="-29.891613"
       transform="rotate(90)" />
    <rect
       style="font-variation-settings:'wght' 900;fill:#4d4d4d;fill-opacity:1;stroke-width:2.05933;-inkscape-stroke:none;paint-order:stroke fill markers"
       id="rect13"
       width="76.729248"
       height="42.054375"
       x="-151.05724"
       y="19.566395"
       transform="rotate(90)" />
    <rect
       style="font-variation-settings:'wght' 900;vector-effect:none;fill:#232629;fill-opacity:1;stroke-width:2.05933;stroke-linecap:butt;stroke-linejoin:miter;stroke-miterlimit:4;stroke-dasharray:none;stroke-dashoffset:0;stroke-opacity:1;-inkscape-stroke:none;paint-order:stroke fill markers;stop-color:#000000"
       id="rect14"
       width="76.729248"
       height="42.054375"
       x="-151.05724"
       y="-224.58528"
       transform="rotate(90)" />
    <rect
       style="font-variation-settings:'wght' 900;fill:url(#linearGradient16);fill-opacity:1;stroke-width:2.27409;-inkscape-stroke:none;paint-order:stroke fill markers"
       id="rect15"
       width="277.04321"
       height="14.203343"
       x="-61.292377"
       y="-63.072147" />
    <rect
       style="font-variation-settings:'wght' 900;fill:#263741;fill-opacity:1;stroke-width:0.665875;-inkscape-stroke:none;paint-order:stroke fill markers"
       id="rect17"
       width="23.753038"
       height="14.203343"
       x="191.99779"
       y="-48.868809" />
    <rect
       style="font-variation-settings:'wght' 900;fill:#2e607c;fill-opacity:1;stroke-width:0.665875;-inkscape-stroke:none;paint-order:stroke fill markers"
       id="rect18"
       width="23.753038"
       height="14.203343"
       x="168.24475"
       y="-48.868809" />
    <rect
       style="font-variation-settings:'wght' 900;fill:#3687b2;fill-opacity:1;stroke-width:0.665875;-inkscape-stroke:none;paint-order:stroke fill markers"
       id="rect19"
       width="23.753038"
       height="14.203343"
       x="144.49173"
       y="-48.868809" />
    <rect
       style="font-variation-settings:'wght' 900;fill:#3dace7;fill-opacity:1;stroke-width:0.665875;-inkscape-stroke:none;paint-order:stroke fill markers"
       id="rect20"
       width="23.753038"
       height="14.203343"
       x="120.73866"
       y="-48.868809" />
    <rect
       style="font-variation-settings:'wght' 900;fill:#399ccf;fill-opacity:1;stroke-width:0.665875;-inkscape-stroke:none;paint-order:stroke fill markers"
       id="rect21"
       width="23.753038"
       height="14.203343"
       x="96.985611"
       y="-48.868809" />
    <rect
       style="font-variation-settings:'wght' 900;fill:#368bb8;fill-opacity:1;stroke-width:0.665875;-inkscape-stroke:none;paint-order:stroke fill markers"
       id="rect22"
       width="23.753038"
       height="14.203343"
       x="73.232567"
       y="-48.868809" />
    <rect
       style="font-variation-settings:'wght' 900;fill:#337aa0;fill-opacity:1;stroke-width:0.665875;-inkscape-stroke:none;paint-order:stroke fill markers"
       id="rect23"
       width="23.753038"
       height="14.203343"
       x="49.479534"
       y="-48.868809" />
    <rect
       style="font-variation-settings:'wght' 900;fill:#2d5b74;fill-opacity:1;stroke-width:1.0168;-inkscape-stroke:none;paint-order:stroke fill markers"
       id="rect25"
       width="55.385971"
       height="14.203343"
       x="-5.9064412"
       y="-48.868809" />
    <rect
       style="font-variation-settings:'wght' 900;fill:#28404d;fill-opacity:1;stroke-width:1.0168;-inkscape-stroke:none;paint-order:stroke fill markers"
       id="rect26"
       width="55.385971"
       height="14.203343"
       x="-61.292377"
       y="-48.868809" />
    <rect
       style="font-variation-settings:'wght' 900;fill:#232629;fill-opacity:1;stroke-width:0.665875;-inkscape-stroke:none;paint-order:stroke fill markers"
       id="rect27"
       width="23.753038"
       height="14.203343"
       x="215.75081"
       y="-48.868809" />
  </g>
  <metadata
     id="metadata1">
    <rdf:RDF>
      <cc:Work
         rdf:about="">
        <dc:title>Wallpaper for Swayhome</dc:title>
        <dc:creator>
          <cc:Agent>
            <dc:title>Hervy Qurrotul Ainur Rozi</dc:title>
          </cc:Agent>
        </dc:creator>
        <cc:license
           rdf:resource="http://creativecommons.org/licenses/by-nc/4.0/" />
      </cc:Work>
      <cc:License
         rdf:about="http://creativecommons.org/licenses/by-nc/4.0/">
        <cc:permits
           rdf:resource="http://creativecommons.org/ns#Reproduction" />
        <cc:permits
           rdf:resource="http://creativecommons.org/ns#Distribution" />
        <cc:requires
           rdf:resource="http://creativecommons.org/ns#Notice" />
        <cc:requires
           rdf:resource="http://creativecommons.org/ns#Attribution" />
        <cc:prohibits
           rdf:resource="http://creativecommons.org/ns#CommercialUse" />
        <cc:permits
           rdf:resource="http://creativecommons.org/ns#DerivativeWorks" />
      </cc:License>
    </rdf:RDF>
  </metadata>
</svg>
